<svg fill="#000000" xmlns="http://www.w3.org/2000/svg"  viewBox="0 0 100 100" width="100px" height="100px"><path d="M 26.019531 34.972656 C 25.489531 34.972656 24.979609 35.1825 24.599609 35.5625 C 24.229609 35.9325 24.019531 36.442656 24.019531 36.972656 L 24.019531 46.882812 C 21.889531 45.162813 18.839063 43.972656 14.539062 43.972656 C 5.2990625 43.972656 0 48.952812 0 57.632812 C 0 66.212813 5.2307031 70.933594 14.720703 70.933594 C 18.930703 70.933594 21.899453 69.862344 23.939453 68.402344 C 23.979453 68.842344 24.160703 69.252266 24.470703 69.572266 C 24.850703 69.972266 25.369922 70.193359 25.919922 70.193359 L 30.789062 70.193359 C 31.539062 70.193359 32.199062 69.782344 32.539062 69.152344 C 34.239063 70.132344 36.639922 70.972656 39.919922 70.972656 C 44.209922 70.972656 47.810469 69.353516 50.230469 66.603516 C 52.050469 69.303516 55.499922 70.933594 59.919922 70.933594 C 63.429922 70.933594 65.960938 70.062734 67.710938 69.052734 C 68.050938 69.682734 68.720703 70.103516 69.470703 70.103516 L 74 70.103516 C 74.56 70.103516 75.100469 69.873125 75.480469 69.453125 C 75.860469 69.043125 76.040234 68.483828 75.990234 67.923828 C 75.990234 67.903828 75.820312 66.082891 75.820312 64.962891 L 75.820312 61.103516 L 79.289062 67.613281 L 75.380859 75.042969 C 75.050859 75.662969 75.069687 76.403906 75.429688 77.003906 C 75.789687 77.603906 76.440391 77.972656 77.150391 77.972656 L 82.710938 77.972656 C 83.470938 77.972656 84.16 77.552813 84.5 76.882812 L 99.740234 46.962891 C 99.910234 46.672891 100 46.332656 100 45.972656 C 100 44.872656 99.109766 43.972656 98.009766 43.972656 L 92.689453 43.972656 C 91.929453 43.972656 91.240391 44.402031 90.900391 45.082031 L 84.300781 58.34375 L 77.679688 45.082031 C 77.339687 44.402031 76.650625 43.972656 75.890625 43.972656 L 70.029297 43.972656 C 69.459297 43.972656 68.920547 44.213047 68.560547 44.623047 C 67.100547 44.213047 65.359297 43.972656 63.279297 43.972656 C 55.529297 43.972656 52.440937 46.993594 51.210938 49.433594 C 48.870937 45.943594 44.859687 43.832031 39.929688 43.832031 C 36.899687 43.832031 34.649766 44.492266 33.009766 45.322266 L 33 36.972656 C 33 35.862656 32.1 34.972656 31 34.972656 L 26.019531 34.972656 z M 26.019531 36.972656 L 31 36.972656 L 31.019531 49.503906 C 31.019531 49.503906 33.129688 45.832031 39.929688 45.832031 C 45.049687 45.832031 48.700156 48.382812 50.410156 52.132812 C 50.390156 52.312812 50.390625 52.432656 50.390625 52.472656 C 50.390625 53.062656 50.650547 53.592891 51.060547 53.962891 C 51.220547 54.552891 51.340391 55.1725 51.400391 55.8125 C 49.400391 57.5425 48.810547 59.763203 48.810547 61.783203 C 48.810547 62.783203 48.96 63.72375 49.25 64.59375 C 47.23 67.33375 43.959922 68.972656 39.919922 68.972656 C 33.369922 68.972656 30.970703 65.212891 30.970703 65.212891 C 30.970703 66.632891 30.789063 68.193359 30.789062 68.193359 L 25.919922 68.193359 C 25.919922 68.193359 25.96 67.422891 26 66.462891 C 26.01 65.822891 26.029297 65.102656 26.029297 64.472656 L 26.029297 58.773438 L 26.029297 53.5625 L 26.019531 48.982422 L 26.019531 36.972656 z M 14.539062 45.972656 C 19.249063 45.972656 22.229531 47.573594 24.019531 49.683594 L 24.029297 58.773438 L 7.0097656 58.773438 C 7.0097656 59.283437 7.0591797 59.774375 7.1523438 60.244141 C 7.2920898 60.948789 7.5308838 61.603994 7.859375 62.199219 C 7.9688721 62.397627 8.0881836 62.59082 8.2167969 62.775391 C 8.4740234 63.144531 8.7695312 63.484219 9.0976562 63.792969 C 9.2617188 63.947344 9.4348389 64.094404 9.6152344 64.232422 C 9.7956299 64.370439 9.9838867 64.500273 10.179688 64.621094 C 10.375488 64.741914 10.578784 64.852295 10.789062 64.955078 C 10.999341 65.057861 11.215625 65.152422 11.439453 65.236328 C 11.663281 65.320234 11.894409 65.394795 12.130859 65.458984 C 12.60376 65.587363 13.101318 65.674277 13.619141 65.71875 C 13.878052 65.740986 14.141406 65.753906 14.410156 65.753906 C 14.740156 65.753906 15.05354 65.73811 15.351562 65.710938 C 16.24563 65.629419 16.999297 65.434687 17.632812 65.173828 C 17.843984 65.086875 18.041313 64.992212 18.226562 64.892578 C 18.597061 64.693311 18.917471 64.472393 19.193359 64.244141 C 19.331304 64.130015 19.457656 64.014375 19.574219 63.898438 C 20.040469 63.434687 20.342656 62.970859 20.527344 62.623047 C 20.712031 62.275234 20.779297 62.042969 20.779297 62.042969 L 24.029297 62.042969 L 24.029297 64.472656 C 24.029297 64.852656 24.019766 65.283125 24.009766 65.703125 C 22.499766 67.353125 19.730703 68.933594 14.720703 68.933594 C 5.8307031 68.933594 2 64.562812 2 57.632812 C 2 48.872813 7.6990625 45.972656 14.539062 45.972656 z M 63.279297 45.972656 C 64.899297 45.972656 66.579141 46.122031 68.119141 46.582031 C 68.159141 46.692031 68.199766 46.802109 68.259766 46.912109 L 73.820312 57.34375 L 73.820312 64.962891 C 73.820312 66.192891 74 68.103516 74 68.103516 L 69.470703 68.103516 C 69.470703 68.103516 69.349609 66.562187 69.349609 64.992188 C 69.349609 64.992188 67.049922 68.933594 59.919922 68.933594 C 55.999922 68.933594 52.83 67.513516 51.5 64.853516 C 51.05 63.963516 50.810547 62.933203 50.810547 61.783203 L 50.810547 61.572266 C 50.840547 60.652266 51.030859 59.82375 51.380859 59.09375 C 51.820859 58.17375 52.520703 57.393437 53.470703 56.773438 C 55.500703 55.423437 58.669688 54.753906 62.929688 54.753906 L 68.910156 54.753906 L 68.910156 53.703125 C 68.910156 50.743125 66.299688 49.203125 62.929688 49.203125 C 57.759687 49.203125 57.490234 52.472656 57.490234 52.472656 L 52.390625 52.472656 C 52.390625 52.342656 52.410937 52.093203 52.460938 51.783203 C 52.800938 50.023203 54.579297 45.972656 63.279297 45.972656 z M 70.029297 45.972656 L 75.890625 45.972656 L 84.300781 62.822266 L 92.689453 45.972656 L 98 45.972656 L 82.710938 75.972656 L 77.150391 75.972656 L 81.560547 67.613281 L 75.820312 56.84375 L 73.730469 52.912109 L 71.160156 48.103516 L 70.029297 45.972656 z M 38.669922 49.203125 C 38.342422 49.203125 38.026196 49.218621 37.720703 49.25 C 37.41521 49.281379 37.119629 49.327998 36.835938 49.388672 C 36.268555 49.51002 35.745078 49.688047 35.263672 49.914062 C 35.022969 50.02707 34.793735 50.153015 34.574219 50.289062 C 34.135186 50.561157 33.73833 50.876772 33.382812 51.228516 C 33.205054 51.404387 33.038047 51.588594 32.880859 51.78125 C 32.723672 51.973906 32.576274 52.175457 32.439453 52.382812 C 32.302632 52.590168 32.175254 52.803467 32.058594 53.023438 C 31.941934 53.243408 31.834985 53.468718 31.738281 53.699219 C 31.641577 53.929719 31.555469 54.165352 31.478516 54.404297 C 31.324609 54.882188 31.208945 55.37584 31.132812 55.875 C 31.094746 56.12458 31.067759 56.375183 31.048828 56.626953 C 31.029897 56.878723 31.019531 57.130938 31.019531 57.382812 C 31.019531 57.652813 31.029861 57.921631 31.050781 58.1875 C 31.071702 58.453369 31.102881 58.716523 31.144531 58.976562 C 31.186182 59.236602 31.238591 59.493584 31.300781 59.746094 C 31.362971 59.998604 31.435039 60.246953 31.517578 60.490234 C 31.600117 60.733516 31.694177 60.970771 31.796875 61.203125 C 32.002271 61.667832 32.246362 62.10873 32.53125 62.519531 C 32.673694 62.724932 32.82625 62.923906 32.988281 63.113281 C 33.312344 63.492031 33.674902 63.836172 34.076172 64.140625 C 34.678076 64.597305 35.367336 64.963564 36.138672 65.214844 C 36.395784 65.298604 36.661943 65.370195 36.9375 65.427734 C 37.213057 65.485273 37.497205 65.528975 37.791016 65.558594 C 38.084827 65.588213 38.387344 65.603516 38.699219 65.603516 C 39.222969 65.603516 39.735684 65.552305 40.230469 65.453125 C 40.725254 65.353945 41.202813 65.206016 41.658203 65.013672 C 41.885898 64.9175 42.108328 64.809741 42.324219 64.691406 C 42.54011 64.573071 42.750342 64.444434 42.953125 64.304688 C 43.155908 64.164941 43.350691 64.013921 43.539062 63.853516 C 43.727434 63.69311 43.909375 63.524062 44.082031 63.34375 C 44.254688 63.163438 44.418582 62.972905 44.574219 62.773438 C 44.885493 62.374502 45.161108 61.937842 45.396484 61.466797 C 45.514172 61.231274 45.621992 60.986797 45.71875 60.734375 C 45.912266 60.229531 46.06209 59.690977 46.164062 59.123047 C 46.215049 58.839082 46.255105 58.548608 46.28125 58.25 C 46.307395 57.951392 46.320312 57.644531 46.320312 57.332031 C 46.320312 57.040781 46.308052 56.756006 46.285156 56.474609 C 46.262261 56.193213 46.22877 55.916914 46.183594 55.646484 C 46.138418 55.376055 46.082466 55.109912 46.015625 54.851562 C 45.948784 54.593213 45.871094 54.342813 45.783203 54.097656 C 45.695312 53.8525 45.596606 53.613662 45.488281 53.382812 C 45.271631 52.921113 45.0154 52.48959 44.720703 52.091797 C 44.573354 51.8929 44.415937 51.700781 44.25 51.519531 C 44.084063 51.338281 43.908521 51.166396 43.724609 51.003906 C 43.540698 50.841416 43.347754 50.689492 43.146484 50.546875 C 42.945215 50.404258 42.735591 50.272021 42.517578 50.150391 C 42.299565 50.02876 42.073984 49.917891 41.839844 49.818359 C 41.137422 49.519766 40.363843 49.321846 39.527344 49.242188 C 39.248511 49.215635 38.962422 49.203125 38.669922 49.203125 z M 14.359375 49.242188 C 13.68625 49.242188 13.012263 49.323914 12.359375 49.480469 C 12.141746 49.532654 11.926602 49.593086 11.714844 49.662109 C 11.291328 49.800156 10.881348 49.972051 10.492188 50.175781 C 10.297607 50.277646 10.107102 50.386038 9.9238281 50.503906 C 9.7405542 50.621775 9.5646875 50.747266 9.3945312 50.880859 C 9.224375 51.014453 9.0595239 51.1576 8.9042969 51.306641 C 8.7490698 51.455681 8.6033301 51.611182 8.4648438 51.775391 C 8.3263574 51.9396 8.196106 52.111917 8.0761719 52.291016 C 7.9562378 52.470115 7.8456641 52.655898 7.7460938 52.849609 C 7.6465234 53.04332 7.5578638 53.245081 7.4804688 53.453125 C 7.4030737 53.661169 7.3366113 53.875557 7.2832031 54.097656 C 7.2297949 54.319756 7.1897192 54.54928 7.1621094 54.785156 C 7.1344995 55.021033 7.1191406 55.264297 7.1191406 55.513672 L 21.25 55.513672 C 21.25 55.278672 21.238232 55.047192 21.216797 54.822266 C 21.195361 54.597339 21.165195 54.378301 21.123047 54.164062 C 21.03875 53.735586 20.912813 53.329297 20.75 52.947266 C 20.668594 52.75625 20.578467 52.57106 20.478516 52.392578 C 20.378564 52.214097 20.268164 52.042285 20.150391 51.876953 C 20.032617 51.711621 19.906357 51.551958 19.771484 51.400391 C 19.636611 51.248823 19.493047 51.105938 19.341797 50.96875 C 19.190547 50.831562 19.032139 50.700317 18.865234 50.578125 C 18.69833 50.455933 18.523633 50.34291 18.341797 50.236328 C 18.159961 50.129746 17.971436 50.02981 17.775391 49.939453 C 17.579346 49.849097 17.375547 49.766875 17.166016 49.693359 C 16.956484 49.619844 16.739873 49.55606 16.517578 49.5 C 15.850693 49.331821 15.128125 49.242188 14.359375 49.242188 z M 38.669922 51.203125 C 38.884297 51.203125 39.094153 51.211909 39.298828 51.230469 C 39.503503 51.249028 39.703955 51.277871 39.898438 51.314453 C 40.09292 51.351035 40.281047 51.395151 40.464844 51.449219 C 40.64864 51.503286 40.827383 51.565703 41 51.636719 C 41.345234 51.77875 41.667285 51.955508 41.964844 52.162109 C 42.113623 52.26541 42.256458 52.375503 42.392578 52.494141 C 42.528699 52.612778 42.658281 52.739609 42.78125 52.873047 C 43.027188 53.139922 43.247129 53.434961 43.4375 53.757812 C 43.627871 54.080664 43.789062 54.432109 43.919922 54.806641 C 43.985352 54.993906 44.041985 55.187339 44.091797 55.386719 C 44.141609 55.586099 44.185049 55.790996 44.21875 56.001953 C 44.252451 56.21291 44.277825 56.428394 44.294922 56.650391 C 44.312019 56.872388 44.320312 57.099531 44.320312 57.332031 C 44.320312 57.562656 44.310696 57.790125 44.292969 58.011719 C 44.275242 58.233313 44.249658 58.450264 44.214844 58.662109 C 44.180029 58.873955 44.1372 59.079871 44.085938 59.28125 C 44.034675 59.482629 43.975273 59.678945 43.908203 59.869141 C 43.774062 60.249531 43.607598 60.606152 43.414062 60.9375 C 43.317295 61.103174 43.214172 61.263679 43.103516 61.416016 C 42.992859 61.568352 42.875859 61.713281 42.751953 61.851562 C 42.628047 61.989844 42.497844 62.120632 42.361328 62.244141 C 42.224812 62.367649 42.08208 62.483779 41.933594 62.591797 C 41.785107 62.699814 41.63052 62.800769 41.470703 62.892578 C 41.310886 62.984387 41.145117 63.067695 40.974609 63.142578 C 40.804102 63.217461 40.627825 63.282605 40.447266 63.339844 C 40.086147 63.454321 39.706079 63.532671 39.308594 63.572266 C 39.109851 63.592063 38.906094 63.603516 38.699219 63.603516 C 38.453594 63.603516 38.21698 63.590085 37.988281 63.566406 C 37.759583 63.542727 37.540107 63.508701 37.328125 63.462891 C 36.90416 63.37127 36.512656 63.237266 36.154297 63.066406 C 35.975117 62.980977 35.803718 62.886121 35.640625 62.783203 C 35.477532 62.680286 35.322998 62.568076 35.175781 62.449219 C 35.028564 62.330361 34.889363 62.203562 34.757812 62.070312 C 34.626262 61.937063 34.502812 61.798437 34.386719 61.652344 C 34.270625 61.50625 34.161394 61.352703 34.060547 61.195312 C 33.9597 61.037922 33.867061 60.876123 33.78125 60.708984 C 33.695439 60.541846 33.615906 60.370652 33.544922 60.195312 C 33.473938 60.019973 33.411836 59.840195 33.355469 59.658203 C 33.242734 59.294219 33.159043 58.918418 33.103516 58.537109 C 33.047988 58.155801 33.019531 57.769062 33.019531 57.382812 C 33.019531 57.026562 33.043184 56.662637 33.091797 56.298828 C 33.14041 55.93502 33.214453 55.571328 33.316406 55.214844 C 33.418359 54.858359 33.548965 54.510059 33.708984 54.175781 C 33.949014 53.674365 34.256653 53.206467 34.640625 52.796875 C 34.768616 52.660344 34.903662 52.528857 35.048828 52.40625 C 35.193994 52.283643 35.348787 52.169324 35.511719 52.0625 C 35.837583 51.848853 36.199136 51.668647 36.599609 51.529297 C 36.799846 51.459622 37.010693 51.399873 37.230469 51.351562 C 37.450244 51.303252 37.680017 51.26532 37.919922 51.240234 C 38.159827 51.215149 38.409297 51.203125 38.669922 51.203125 z M 62.929688 51.203125 C 63.719687 51.203125 65.999219 51.333906 66.699219 52.753906 L 62.929688 52.753906 C 61.669688 52.753906 60.520938 52.813828 59.460938 52.923828 C 59.470937 52.843828 59.480469 52.763828 59.480469 52.673828 C 59.550469 52.403828 60.019688 51.203125 62.929688 51.203125 z M 14.359375 51.242188 C 14.629375 51.242188 14.891523 51.255742 15.142578 51.28125 C 15.393633 51.306758 15.634141 51.344375 15.865234 51.394531 C 16.096328 51.444688 16.317227 51.508086 16.527344 51.582031 C 16.737461 51.655977 16.936875 51.741016 17.125 51.837891 C 17.313125 51.934766 17.48918 52.043164 17.654297 52.162109 C 17.819414 52.281055 17.974141 52.410625 18.115234 52.550781 C 18.256328 52.690937 18.383945 52.841445 18.5 53.001953 C 18.616055 53.162461 18.720547 53.333672 18.810547 53.513672 L 9.6796875 53.513672 C 9.9096875 53.141172 10.202891 52.811953 10.541016 52.529297 C 10.879141 52.246641 11.263281 52.008984 11.675781 51.818359 C 11.882031 51.723047 12.093984 51.640254 12.3125 51.568359 C 12.749531 51.42457 13.207187 51.327773 13.667969 51.279297 C 13.898359 51.255059 14.129375 51.242188 14.359375 51.242188 z M 53.240234 54.472656 L 53.449219 54.472656 C 53.379219 54.502656 53.319766 54.542266 53.259766 54.572266 C 53.249766 54.542266 53.240234 54.502656 53.240234 54.472656 z M 68.910156 57.912109 C 61.170156 57.912109 55.910156 57.943203 55.910156 61.783203 C 55.910156 63.893203 57.469141 65.712891 61.119141 65.712891 C 67.769141 65.712891 68.910156 61.152266 68.910156 59.322266 L 68.910156 57.912109 z M 66.859375 59.923828 C 66.659375 61.193828 65.689141 63.712891 61.119141 63.712891 C 59.649141 63.712891 57.910156 63.373203 57.910156 61.783203 C 57.910156 61.363203 57.909922 60.793281 59.919922 60.363281 C 61.619922 60.003281 64.109375 59.933828 66.859375 59.923828 z M 9.390625 60.773438 L 19.230469 60.773438 C 19.150469 60.878437 19.078125 60.990625 19.015625 61.109375 C 18.953125 61.228125 18.899375 61.352422 18.859375 61.482422 C 18.833125 61.557422 18.701504 61.895898 18.359375 62.289062 C 18.245332 62.420117 18.108047 62.557734 17.943359 62.693359 C 17.778672 62.828984 17.586387 62.963086 17.363281 63.087891 C 17.140176 63.212695 16.886953 63.327188 16.597656 63.425781 C 16.019063 63.622969 15.300156 63.753906 14.410156 63.753906 C 12.885156 63.753906 11.597754 63.308594 10.664062 62.525391 C 10.477324 62.36875 10.306016 62.198438 10.148438 62.015625 C 9.9908594 61.832812 9.8472852 61.636953 9.7207031 61.429688 C 9.5941211 61.222422 9.484375 61.003438 9.390625 60.773438 z M 0.5 73.951172 A 0.50005 0.50005 0 1 0 0.5 74.951172 L 57.5 74.972656 A 0.50005 0.50005 0 1 0 57.5 73.972656 L 0.5 73.951172 z M 61.5 73.972656 A 0.50005 0.50005 0 1 0 61.5 74.972656 L 68.5 74.972656 A 0.50005 0.50005 0 1 0 68.5 73.972656 L 61.5 73.972656 z M 71.5 73.972656 A 0.50005 0.50005 0 1 0 71.5 74.972656 L 72.5 74.972656 A 0.50005 0.50005 0 1 0 72.5 73.972656 L 71.5 73.972656 z"/></svg>